<svg width="20" height="27" viewBox="0 0 20 27" fill="none" xmlns="http://www.w3.org/2000/svg">
<path d="M5.75599 0.56898C5.41136 0.204891 4.94158 0 4.45142 0C3.43821 0 2.61684 0.857957 2.61684 1.91628V5.78571H0.923172C0.661005 5.78571 0.411208 5.90214 0.236114 6.10593C0.0610075 6.30975 -0.0228771 6.58169 0.00538406 6.85394L1.82849 24.4189C1.9809 25.8873 3.16784 27 4.58185 27H15.4226C16.8369 27 18.024 25.887 18.1761 24.4182L19.9946 6.85368C20.0228 6.58148 19.9389 6.30959 19.7639 6.10584C19.5887 5.9021 19.339 5.78571 19.0769 5.78571H17.3875V2.25C17.3875 1.00736 16.4231 0 15.2334 0H10.9253C9.73568 0 8.77128 1.00736 8.77128 2.25V3.75452L5.75599 0.56898ZM15.5412 2.25V5.78571H10.6176V2.25C10.6176 2.07248 10.7553 1.92857 10.9253 1.92857H15.2334C15.4034 1.92857 15.5412 2.07248 15.5412 2.25ZM8.09749 5.78571H4.46317V1.94619L8.09749 5.78571ZM9.74688 12.0978L8.92367 13.3833C8.64019 13.8259 8.06684 13.9447 7.64305 13.6485C7.21928 13.3524 7.10557 12.7535 7.38907 12.3108L8.21233 11.0255C9.06534 9.69358 10.94 9.69358 11.7931 11.0255L12.6163 12.3108C12.8998 12.7535 12.7861 13.3524 12.3624 13.6485C11.9386 13.9447 11.3653 13.8259 11.0818 13.3833L10.2584 12.0978C10.1366 11.9075 9.86874 11.9075 9.74688 12.0978ZM7.40936 16.236L6.96116 17.0163C6.71503 17.4448 7.01052 17.99 7.4889 17.99H8.46405C8.97388 17.99 9.38722 18.4217 9.38722 18.9543C9.38722 19.4868 8.97388 19.9185 8.46405 19.9185H7.4889C5.57538 19.9185 4.39344 17.738 5.37794 16.0241L5.82615 15.2438C6.08846 14.7871 6.65553 14.639 7.09272 14.9131C7.52992 15.1871 7.67173 15.7794 7.40936 16.236ZM12.9161 14.9127C13.3535 14.639 13.9205 14.7875 14.1825 15.2443L14.6306 16.0257C15.6135 17.7395 14.4314 19.9185 12.5187 19.9185H11.5413C11.0314 19.9185 10.6181 19.4868 10.6181 18.9543C10.6181 18.4217 11.0314 17.99 11.5413 17.99H12.5187C12.9969 17.99 13.2923 17.4452 13.0466 17.0167L12.5986 16.2355C12.3365 15.7787 12.4787 15.1865 12.9161 14.9127Z" fill="white"/>
</svg>
